<svg width="315" height="199" viewBox="0 0 315 199" fill="none" xmlns="http://www.w3.org/2000/svg">
<path d="M60.06 87.5551V112.755H57.432V101.127H41.664V112.755H39V87.5551H41.664V98.7871H57.432V87.5551H60.06Z" fill="white"/>
<path d="M108.101 112.971C105.605 112.971 103.337 112.419 101.297 111.315C99.2812 110.187 97.6972 108.651 96.5452 106.707C95.4172 104.763 94.8532 102.579 94.8532 100.155C94.8532 97.7311 95.4172 95.5471 96.5452 93.6031C97.6972 91.6591 99.2812 90.1351 101.297 89.0311C103.337 87.9031 105.605 87.3391 108.101 87.3391C110.597 87.3391 112.841 87.8911 114.833 88.9951C116.849 90.0991 118.433 91.6351 119.585 93.6031C120.737 95.5471 121.313 97.7311 121.313 100.155C121.313 102.579 120.737 104.775 119.585 106.743C118.433 108.687 116.849 110.211 114.833 111.315C112.841 112.419 110.597 112.971 108.101 112.971ZM108.101 110.595C110.093 110.595 111.893 110.151 113.501 109.263C115.109 108.351 116.369 107.103 117.281 105.519C118.193 103.911 118.649 102.123 118.649 100.155C118.649 98.1871 118.193 96.4111 117.281 94.8271C116.369 93.2191 115.109 91.9711 113.501 91.0831C111.893 90.1711 110.093 89.7151 108.101 89.7151C106.109 89.7151 104.297 90.1711 102.665 91.0831C101.057 91.9711 99.7852 93.2191 98.8492 94.8271C97.9372 96.4111 97.4812 98.1871 97.4812 100.155C97.4812 102.123 97.9372 103.911 98.8492 105.519C99.7852 107.103 101.057 108.351 102.665 109.263C104.297 110.151 106.109 110.595 108.101 110.595Z" fill="white"/>
<path d="M160.629 89.8591H151.773V87.5551H172.149V89.8591H163.293V112.755H160.629V89.8591Z" fill="white"/>
<path d="M223.025 110.451V112.755H205.205V87.5551H222.485V89.8591H207.869V98.8231H220.901V101.091H207.869V110.451H223.025Z" fill="white"/>
<path d="M258.087 87.5551H260.751V110.451H274.863V112.755H258.087V87.5551Z" fill="white"/>
<path d="M0 63.4219V0.859375H20.4531C27.2422 0.859375 32.3411 2.26302 35.75 5.07031C39.1875 7.8776 40.9062 12.0312 40.9062 17.5312C40.9062 20.4531 40.0755 23.0456 38.4141 25.3086C36.7526 27.543 34.4896 29.276 31.625 30.5078C35.0052 31.4531 37.6693 33.2578 39.6172 35.9219C41.5938 38.5573 42.582 41.7083 42.582 45.375C42.582 50.9896 40.763 55.401 37.125 58.6094C33.487 61.8177 28.3451 63.4219 21.6992 63.4219H0ZM8.25 34.1602V56.6758H21.8711C25.7096 56.6758 28.7318 55.6875 30.9375 53.7109C33.1719 51.7057 34.2891 48.9557 34.2891 45.4609C34.2891 37.9271 30.1927 34.1602 22 34.1602H8.25ZM8.25 27.543H20.7109C24.3203 27.543 27.1992 26.6406 29.3477 24.8359C31.5247 23.0312 32.6133 20.582 32.6133 17.4883C32.6133 14.0508 31.6107 11.5586 29.6055 10.0117C27.6003 8.4362 24.5495 7.64844 20.4531 7.64844H8.25V27.543Z" fill="white"/>
<path d="M91.6953 38.5H67.375V63.4219H52.293V0.859375H94.1445V12.5039H67.375V26.8984H91.6953V38.5Z" fill="white"/>
<path d="M123.664 41.3359H115.5V63.4219H100.418V0.859375H125.039C132.458 0.859375 138.259 2.50651 142.441 5.80078C146.624 9.09505 148.715 13.75 148.715 19.7656C148.715 24.1198 147.827 27.7292 146.051 30.5938C144.303 33.4583 141.553 35.7786 137.801 37.5547L150.863 62.7773V63.4219H134.707L123.664 41.3359ZM115.5 29.6914H125.039C127.904 29.6914 130.052 28.9466 131.484 27.457C132.945 25.9388 133.676 23.8333 133.676 21.1406C133.676 18.4479 132.945 16.3424 131.484 14.8242C130.023 13.2773 127.875 12.5039 125.039 12.5039H115.5V29.6914Z" fill="white"/>
<path d="M196.625 36.9102H172.906V51.8203H200.922V63.4219H157.824V0.859375H201.008V12.5039H172.906V25.6953H196.625V36.9102Z" fill="white"/>
<path d="M239.336 46.793C239.336 44.5872 238.548 42.8685 236.973 41.6367C235.426 40.4049 232.69 39.1302 228.766 37.8125C224.841 36.4948 221.633 35.2201 219.141 33.9883C211.034 30.0065 206.98 24.5352 206.98 17.5742C206.98 14.1081 207.983 11.0573 209.988 8.42188C212.022 5.75781 214.887 3.69531 218.582 2.23438C222.277 0.744792 226.431 0 231.043 0C235.54 0 239.565 0.802083 243.117 2.40625C246.698 4.01042 249.477 6.30208 251.453 9.28125C253.43 12.2318 254.418 15.612 254.418 19.4219H239.379C239.379 16.8724 238.591 14.8958 237.016 13.4922C235.469 12.0885 233.363 11.3867 230.699 11.3867C228.007 11.3867 225.872 11.9883 224.297 13.1914C222.75 14.3659 221.977 15.8698 221.977 17.7031C221.977 19.3073 222.836 20.7682 224.555 22.0859C226.273 23.375 229.296 24.7214 233.621 26.125C237.947 27.5 241.499 28.9896 244.277 30.5938C251.038 34.4896 254.418 39.8607 254.418 46.707C254.418 52.1784 252.355 56.4753 248.23 59.5977C244.105 62.7201 238.448 64.2812 231.258 64.2812C226.188 64.2812 221.59 63.3789 217.465 61.5742C213.368 59.7409 210.275 57.2487 208.184 54.0977C206.121 50.918 205.09 47.2656 205.09 43.1406H220.215C220.215 46.4922 221.074 48.9701 222.793 50.5742C224.54 52.1497 227.362 52.9375 231.258 52.9375C233.75 52.9375 235.712 52.4076 237.145 51.3477C238.605 50.2591 239.336 48.7409 239.336 46.793Z" fill="white"/>
<path d="M314.445 63.4219H299.449V37.2969H277.234V63.4219H262.152V0.859375H277.234V25.6953H299.449V0.859375H314.445V63.4219Z" fill="white"/>
<path d="M49.6172 192.064C49.6172 193.318 49.4004 194.42 48.9668 195.369C48.5332 196.312 47.9121 197.039 47.1035 197.549C46.3008 198.052 45.375 198.304 44.3262 198.304C43.2891 198.304 42.3633 198.052 41.5488 197.549C40.7402 197.039 40.1133 196.315 39.668 195.378C39.2285 194.44 39.0059 193.359 39 192.135V191.414C39 190.166 39.2197 189.064 39.6592 188.109C40.1045 187.154 40.7285 186.425 41.5312 185.921C42.3398 185.411 43.2656 185.156 44.3086 185.156C45.3516 185.156 46.2744 185.408 47.0771 185.912C47.8857 186.41 48.5098 187.131 48.9492 188.074C49.3887 189.011 49.6113 190.104 49.6172 191.352V192.064ZM47.3936 191.396C47.3936 189.978 47.124 188.891 46.585 188.135C46.0518 187.38 45.293 187.002 44.3086 187.002C43.3477 187.002 42.5947 187.38 42.0498 188.135C41.5107 188.885 41.2354 189.949 41.2236 191.326V192.064C41.2236 193.47 41.4961 194.557 42.041 195.325C42.5918 196.093 43.3535 196.476 44.3262 196.476C45.3105 196.476 46.0664 196.101 46.5938 195.351C47.127 194.601 47.3936 193.506 47.3936 192.064V191.396Z" fill="white"/>
<path d="M57.6557 193.374V198.129H55.432V185.332H60.3275C61.7572 185.332 62.891 185.704 63.7289 186.448C64.5727 187.192 64.9945 188.177 64.9945 189.401C64.9945 190.655 64.5814 191.631 63.7553 192.328C62.935 193.025 61.7836 193.374 60.3012 193.374H57.6557ZM57.6557 191.59H60.3275C61.1186 191.59 61.7221 191.405 62.1381 191.036C62.5541 190.661 62.7621 190.122 62.7621 189.419C62.7621 188.727 62.5512 188.177 62.1293 187.766C61.7074 187.35 61.1273 187.136 60.3891 187.125H57.6557V191.59Z" fill="white"/>
<path d="M80.7586 192.064C80.7586 193.318 80.5418 194.42 80.1082 195.369C79.6746 196.312 79.0535 197.039 78.2449 197.549C77.4422 198.052 76.5164 198.304 75.4676 198.304C74.4305 198.304 73.5047 198.052 72.6902 197.549C71.8816 197.039 71.2547 196.315 70.8094 195.378C70.3699 194.44 70.1473 193.359 70.1414 192.135V191.414C70.1414 190.166 70.3611 189.064 70.8006 188.109C71.2459 187.154 71.8699 186.425 72.6727 185.921C73.4813 185.411 74.407 185.156 75.45 185.156C76.493 185.156 77.4158 185.408 78.2186 185.912C79.0271 186.41 79.6512 187.131 80.0906 188.074C80.5301 189.011 80.7527 190.104 80.7586 191.352V192.064ZM78.535 191.396C78.535 189.978 78.2654 188.891 77.7264 188.135C77.1932 187.38 76.4344 187.002 75.45 187.002C74.4891 187.002 73.7361 187.38 73.1912 188.135C72.6521 188.885 72.3768 189.949 72.365 191.326V192.064C72.365 193.47 72.6375 194.557 73.1824 195.325C73.7332 196.093 74.4949 196.476 75.4676 196.476C76.452 196.476 77.2078 196.101 77.7352 195.351C78.2684 194.601 78.535 193.506 78.535 192.064V191.396Z" fill="white"/>
<path d="M91.2756 193.198H88.7971V198.129H86.5734V185.332H91.0734C92.55 185.332 93.6896 185.663 94.4924 186.325C95.2951 186.987 95.6965 187.945 95.6965 189.199C95.6965 190.054 95.4885 190.772 95.0725 191.352C94.6623 191.927 94.0881 192.369 93.3498 192.679L96.2238 198.014V198.129H93.842L91.2756 193.198ZM88.7971 191.414H91.0822C91.8322 191.414 92.4182 191.226 92.84 190.851C93.2619 190.47 93.4729 189.952 93.4729 189.296C93.4729 188.61 93.2766 188.08 92.884 187.705C92.4973 187.33 91.9172 187.136 91.1437 187.125H88.7971V191.414Z" fill="white"/>
<path d="M110.213 187.125H106.222V198.129H104.016V187.125H100.061V185.332H110.213V187.125Z" fill="white"/>
<path d="M125.467 192.064C125.467 193.318 125.25 194.42 124.816 195.369C124.383 196.312 123.762 197.039 122.953 197.549C122.15 198.052 121.225 198.304 120.176 198.304C119.139 198.304 118.213 198.052 117.398 197.549C116.59 197.039 115.963 196.315 115.518 195.378C115.078 194.44 114.855 193.359 114.85 192.135V191.414C114.85 190.166 115.069 189.064 115.509 188.109C115.954 187.154 116.578 186.425 117.381 185.921C118.189 185.411 119.115 185.156 120.158 185.156C121.201 185.156 122.124 185.408 122.927 185.912C123.735 186.41 124.359 187.131 124.799 188.074C125.238 189.011 125.461 190.104 125.467 191.352V192.064ZM123.243 191.396C123.243 189.978 122.974 188.891 122.435 188.135C121.901 187.38 121.143 187.002 120.158 187.002C119.197 187.002 118.444 187.38 117.899 188.135C117.36 188.885 117.085 189.949 117.073 191.326V192.064C117.073 193.47 117.346 194.557 117.891 195.325C118.441 196.093 119.203 196.476 120.176 196.476C121.16 196.476 121.916 196.101 122.443 195.351C122.977 194.601 123.243 193.506 123.243 192.064V191.396Z" fill="white"/>
<path d="M149.129 193.963C149 195.328 148.496 196.394 147.617 197.162C146.738 197.924 145.569 198.304 144.11 198.304C143.091 198.304 142.191 198.064 141.412 197.584C140.638 197.097 140.041 196.409 139.619 195.518C139.197 194.628 138.977 193.594 138.96 192.416V191.22C138.96 190.013 139.174 188.95 139.601 188.03C140.029 187.11 140.641 186.401 141.438 185.903C142.241 185.405 143.167 185.156 144.216 185.156C145.628 185.156 146.764 185.54 147.626 186.307C148.487 187.075 148.988 188.159 149.129 189.559H146.914C146.808 188.639 146.539 187.977 146.105 187.573C145.678 187.163 145.048 186.958 144.216 186.958C143.249 186.958 142.505 187.312 141.983 188.021C141.468 188.724 141.204 189.759 141.192 191.124V192.258C141.192 193.64 141.438 194.695 141.93 195.422C142.429 196.148 143.155 196.511 144.11 196.511C144.983 196.511 145.639 196.315 146.079 195.923C146.518 195.53 146.797 194.877 146.914 193.963H149.129Z" fill="white"/>
<path d="M164.937 192.064C164.937 193.318 164.72 194.42 164.286 195.369C163.853 196.312 163.232 197.039 162.423 197.549C161.62 198.052 160.695 198.304 159.646 198.304C158.609 198.304 157.683 198.052 156.868 197.549C156.06 197.039 155.433 196.315 154.988 195.378C154.548 194.44 154.325 193.359 154.32 192.135V191.414C154.32 190.166 154.539 189.064 154.979 188.109C155.424 187.154 156.048 186.425 156.851 185.921C157.659 185.411 158.585 185.156 159.628 185.156C160.671 185.156 161.594 185.408 162.397 185.912C163.205 186.41 163.829 187.131 164.269 188.074C164.708 189.011 164.931 190.104 164.937 191.352V192.064ZM162.713 191.396C162.713 189.978 162.444 188.891 161.904 188.135C161.371 187.38 160.613 187.002 159.628 187.002C158.667 187.002 157.914 187.38 157.369 188.135C156.83 188.885 156.555 189.949 156.543 191.326V192.064C156.543 193.47 156.816 194.557 157.361 195.325C157.911 196.093 158.673 196.476 159.646 196.476C160.63 196.476 161.386 196.101 161.913 195.351C162.446 194.601 162.713 193.506 162.713 192.064V191.396Z" fill="white"/>
<path d="M172.975 196.353H178.785V198.129H170.752V185.332H172.975V196.353Z" fill="white"/>
<path d="M186.313 196.353H192.123V198.129H184.09V185.332H186.313V196.353Z" fill="white"/>
<path d="M204.908 192.416H199.652V196.353H205.795V198.129H197.428V185.332H205.734V187.125H199.652V190.658H204.908V192.416Z" fill="white"/>
<path d="M220.971 193.963C220.842 195.328 220.338 196.394 219.459 197.162C218.58 197.924 217.411 198.304 215.952 198.304C214.932 198.304 214.033 198.064 213.254 197.584C212.48 197.097 211.883 196.409 211.461 195.518C211.039 194.628 210.819 193.594 210.802 192.416V191.22C210.802 190.013 211.015 188.95 211.443 188.03C211.871 187.11 212.483 186.401 213.28 185.903C214.083 185.405 215.009 185.156 216.057 185.156C217.47 185.156 218.606 185.54 219.468 186.307C220.329 187.075 220.83 188.159 220.971 189.559H218.756C218.65 188.639 218.381 187.977 217.947 187.573C217.519 187.163 216.889 186.958 216.057 186.958C215.091 186.958 214.346 187.312 213.825 188.021C213.309 188.724 213.046 189.759 213.034 191.124V192.258C213.034 193.64 213.28 194.695 213.772 195.422C214.27 196.148 214.997 196.511 215.952 196.511C216.825 196.511 217.481 196.315 217.921 195.923C218.36 195.53 218.638 194.877 218.756 193.963H220.971Z" fill="white"/>
<path d="M235.548 187.125H231.558V198.129H229.352V187.125H225.397V185.332H235.548V187.125Z" fill="white"/>
<path d="M243.182 198.129H240.967V185.332H243.182V198.129Z" fill="white"/>
<path d="M259.729 192.064C259.729 193.318 259.512 194.42 259.078 195.369C258.645 196.312 258.023 197.039 257.215 197.549C256.412 198.052 255.486 198.304 254.438 198.304C253.4 198.304 252.475 198.052 251.66 197.549C250.852 197.039 250.225 196.315 249.779 195.378C249.34 194.44 249.117 193.359 249.111 192.135V191.414C249.111 190.166 249.331 189.064 249.771 188.109C250.216 187.154 250.84 186.425 251.643 185.921C252.451 185.411 253.377 185.156 254.42 185.156C255.463 185.156 256.386 185.408 257.188 185.912C257.997 186.41 258.621 187.131 259.061 188.074C259.5 189.011 259.723 190.104 259.729 191.352V192.064ZM257.505 191.396C257.505 189.978 257.235 188.891 256.696 188.135C256.163 187.38 255.404 187.002 254.42 187.002C253.459 187.002 252.706 187.38 252.161 188.135C251.622 188.885 251.347 189.949 251.335 191.326V192.064C251.335 193.47 251.607 194.557 252.152 195.325C252.703 196.093 253.465 196.476 254.438 196.476C255.422 196.476 256.178 196.101 256.705 195.351C257.238 194.601 257.505 193.506 257.505 192.064V191.396Z" fill="white"/>
<path d="M275.695 198.129H273.471L267.767 189.05V198.129H265.543V185.332H267.767L273.489 194.446V185.332H275.695V198.129Z" fill="white"/>
<path d="M3.96484 152.415V158.755H1V141.693H7.52734C9.43359 141.693 10.9453 142.189 12.0625 143.181C13.1875 144.173 13.75 145.486 13.75 147.118C13.75 148.79 13.1992 150.091 12.0977 151.021C11.0039 151.95 9.46875 152.415 7.49219 152.415H3.96484ZM3.96484 150.036H7.52734C8.58203 150.036 9.38672 149.79 9.94141 149.298C10.4961 148.798 10.7734 148.079 10.7734 147.142C10.7734 146.22 10.4922 145.486 9.92969 144.939C9.36719 144.384 8.59375 144.099 7.60938 144.083H3.96484V150.036Z" fill="white"/>
<path d="M32.3688 150.669C32.3688 152.341 32.0797 153.81 31.5016 155.075C30.9234 156.333 30.0953 157.302 29.0172 157.982C27.9469 158.654 26.7125 158.99 25.3141 158.99C23.9312 158.99 22.6969 158.654 21.6109 157.982C20.5328 157.302 19.6969 156.337 19.1031 155.087C18.5172 153.837 18.2203 152.396 18.2125 150.763V149.802C18.2125 148.138 18.5055 146.669 19.0914 145.396C19.6852 144.122 20.5172 143.15 21.5875 142.478C22.6656 141.798 23.9 141.458 25.2906 141.458C26.6812 141.458 27.9117 141.794 28.982 142.466C30.0602 143.13 30.8922 144.091 31.4781 145.349C32.0641 146.599 32.3609 148.056 32.3688 149.72V150.669ZM29.4039 149.779C29.4039 147.888 29.0445 146.439 28.3258 145.431C27.6148 144.423 26.6031 143.919 25.2906 143.919C24.0094 143.919 23.0055 144.423 22.2789 145.431C21.5602 146.431 21.193 147.849 21.1773 149.685V150.669C21.1773 152.544 21.5406 153.993 22.2672 155.017C23.0016 156.04 24.0172 156.552 25.3141 156.552C26.6266 156.552 27.6344 156.052 28.3375 155.052C29.0484 154.052 29.4039 152.591 29.4039 150.669V149.779Z" fill="white"/>
<path d="M51.3391 150.669C51.3391 152.341 51.05 153.81 50.4719 155.075C49.8937 156.333 49.0656 157.302 47.9875 157.982C46.9172 158.654 45.6828 158.99 44.2844 158.99C42.9016 158.99 41.6672 158.654 40.5812 157.982C39.5031 157.302 38.6672 156.337 38.0734 155.087C37.4875 153.837 37.1906 152.396 37.1828 150.763V149.802C37.1828 148.138 37.4758 146.669 38.0617 145.396C38.6555 144.122 39.4875 143.15 40.5578 142.478C41.6359 141.798 42.8703 141.458 44.2609 141.458C45.6516 141.458 46.882 141.794 47.9523 142.466C49.0305 143.13 49.8625 144.091 50.4484 145.349C51.0344 146.599 51.3312 148.056 51.3391 149.72V150.669ZM48.3742 149.779C48.3742 147.888 48.0148 146.439 47.2961 145.431C46.5852 144.423 45.5734 143.919 44.2609 143.919C42.9797 143.919 41.9758 144.423 41.2492 145.431C40.5305 146.431 40.1633 147.849 40.1477 149.685V150.669C40.1477 152.544 40.5109 153.993 41.2375 155.017C41.9719 156.04 42.9875 156.552 44.2844 156.552C45.5969 156.552 46.6047 156.052 47.3078 155.052C48.0187 154.052 48.3742 152.591 48.3742 150.669V149.779Z" fill="white"/>
<path d="M59.657 156.388H67.4031V158.755H56.6922V141.693H59.657V156.388Z" fill="white"/>
<path d="M81.9531 155.755C82.4844 155.755 82.8945 155.907 83.1836 156.212C83.4727 156.509 83.6172 156.884 83.6172 157.337C83.6172 157.782 83.4727 158.154 83.1836 158.45C82.8945 158.74 82.4844 158.884 81.9531 158.884C81.4453 158.884 81.043 158.74 80.7461 158.45C80.4492 158.161 80.3008 157.79 80.3008 157.337C80.3008 156.884 80.4453 156.509 80.7344 156.212C81.0234 155.907 81.4297 155.755 81.9531 155.755Z" fill="white"/>
<path d="M107.765 151.525H100.898V158.755H97.9328V141.693H108.773V144.083H100.898V149.157H107.765V151.525Z" fill="white"/>
<path d="M116.657 158.755H113.704V141.693H116.657V158.755Z" fill="white"/>
<path d="M134.678 144.083H129.358V158.755H126.416V144.083H121.143V141.693H134.678V144.083Z" fill="white"/>
<path d="M152.863 158.755H149.898L142.293 146.65V158.755H139.328V141.693H142.293L149.922 153.845V141.693H152.863V158.755Z" fill="white"/>
<path d="M168.74 151.138H161.732V156.388H169.923V158.755H158.767V141.693H169.841V144.083H161.732V148.794H168.74V151.138Z" fill="white"/>
<path d="M183.655 154.361C183.655 153.611 183.39 153.032 182.859 152.626C182.335 152.22 181.386 151.81 180.011 151.396C178.636 150.982 177.542 150.521 176.73 150.013C175.175 149.036 174.398 147.763 174.398 146.193C174.398 144.818 174.956 143.685 176.073 142.794C177.198 141.904 178.655 141.458 180.445 141.458C181.632 141.458 182.691 141.677 183.62 142.115C184.55 142.552 185.28 143.177 185.812 143.99C186.343 144.794 186.609 145.689 186.609 146.673H183.655C183.655 145.782 183.374 145.087 182.812 144.587C182.257 144.079 181.46 143.825 180.421 143.825C179.452 143.825 178.698 144.032 178.159 144.447C177.628 144.861 177.363 145.439 177.363 146.181C177.363 146.806 177.652 147.329 178.23 147.751C178.808 148.165 179.761 148.572 181.089 148.97C182.417 149.361 183.484 149.81 184.288 150.318C185.093 150.818 185.683 151.396 186.058 152.052C186.433 152.7 186.62 153.462 186.62 154.337C186.62 155.759 186.073 156.892 184.98 157.736C183.894 158.572 182.417 158.99 180.55 158.99C179.316 158.99 178.179 158.763 177.14 158.31C176.109 157.849 175.304 157.216 174.726 156.411C174.155 155.607 173.87 154.669 173.87 153.599H176.835C176.835 154.568 177.155 155.318 177.796 155.849C178.437 156.38 179.355 156.646 180.55 156.646C181.581 156.646 182.355 156.439 182.87 156.025C183.394 155.603 183.655 155.048 183.655 154.361Z" fill="white"/>
<path d="M200.54 154.361C200.54 153.611 200.274 153.032 199.743 152.626C199.22 152.22 198.27 151.81 196.895 151.396C195.52 150.982 194.427 150.521 193.614 150.013C192.059 149.036 191.282 147.763 191.282 146.193C191.282 144.818 191.841 143.685 192.958 142.794C194.083 141.904 195.54 141.458 197.329 141.458C198.516 141.458 199.575 141.677 200.505 142.115C201.434 142.552 202.165 143.177 202.696 143.99C203.227 144.794 203.493 145.689 203.493 146.673H200.54C200.54 145.782 200.259 145.087 199.696 144.587C199.141 144.079 198.345 143.825 197.305 143.825C196.337 143.825 195.583 144.032 195.044 144.447C194.512 144.861 194.247 145.439 194.247 146.181C194.247 146.806 194.536 147.329 195.114 147.751C195.692 148.165 196.645 148.572 197.973 148.97C199.302 149.361 200.368 149.81 201.173 150.318C201.977 150.818 202.567 151.396 202.942 152.052C203.317 152.7 203.505 153.462 203.505 154.337C203.505 155.759 202.958 156.892 201.864 157.736C200.778 158.572 199.302 158.99 197.434 158.99C196.2 158.99 195.063 158.763 194.024 158.31C192.993 157.849 192.188 157.216 191.61 156.411C191.04 155.607 190.755 154.669 190.755 153.599H193.72C193.72 154.568 194.04 155.318 194.68 155.849C195.321 156.38 196.239 156.646 197.434 156.646C198.466 156.646 199.239 156.439 199.755 156.025C200.278 155.603 200.54 155.048 200.54 154.361Z" fill="white"/>
<path d="M218.383 155.755C218.914 155.755 219.324 155.907 219.613 156.212C219.902 156.509 220.047 156.884 220.047 157.337C220.047 157.782 219.902 158.154 219.613 158.45C219.324 158.74 218.914 158.884 218.383 158.884C217.875 158.884 217.473 158.74 217.176 158.45C216.879 158.161 216.73 157.79 216.73 157.337C216.73 156.884 216.875 156.509 217.164 156.212C217.453 155.907 217.859 155.755 218.383 155.755Z" fill="white"/>
<path d="M237.327 152.415V158.755H234.363V141.693H240.89C242.796 141.693 244.308 142.189 245.425 143.181C246.55 144.173 247.113 145.486 247.113 147.118C247.113 148.79 246.562 150.091 245.46 151.021C244.366 151.95 242.831 152.415 240.855 152.415H237.327ZM237.327 150.036H240.89C241.945 150.036 242.749 149.79 243.304 149.298C243.859 148.798 244.136 148.079 244.136 147.142C244.136 146.22 243.855 145.486 243.292 144.939C242.73 144.384 241.956 144.099 240.972 144.083H237.327V150.036Z" fill="white"/>
<path d="M259.579 154.782H252.97L251.587 158.755H248.505L254.95 141.693H257.61L264.067 158.755H260.973L259.579 154.782ZM253.802 152.392H258.747L256.274 145.314L253.802 152.392Z" fill="white"/>
<path d="M268.413 158.755V141.693H273.452C274.959 141.693 276.295 142.029 277.459 142.7C278.631 143.372 279.538 144.325 280.178 145.56C280.819 146.794 281.139 148.208 281.139 149.802V150.657C281.139 152.275 280.815 153.697 280.166 154.923C279.526 156.15 278.608 157.095 277.413 157.759C276.225 158.423 274.862 158.755 273.323 158.755H268.413ZM271.377 144.083V156.388H273.311C274.866 156.388 276.057 155.904 276.885 154.935C277.721 153.958 278.147 152.56 278.163 150.74V149.79C278.163 147.939 277.76 146.525 276.956 145.548C276.151 144.572 274.983 144.083 273.452 144.083H271.377Z" fill="white"/>
<path d="M296.465 151.138H289.457V156.388H297.648V158.755H286.492V141.693H297.566V144.083H289.457V148.794H296.465V151.138Z" fill="white"/>
<path d="M305.427 156.388H313.173V158.755H302.463V141.693H305.427V156.388Z" fill="white"/>
</svg>
